# xmcd CD database file
#
# Track frame offsets:
#	150
#	17757
#	39759
#	62567
#	85749
#	110746
#	134478
#	155952
#	179976
#	203545
#	230146
#	250080
#
# Disc length: 3637 seconds
#
# Revision: 0
# Processed by: cddbd v1.5.2PL0 Copyright (c) Steve Scherf et al.
# Submitted via: CDex 1.70beta2
#
DISCID=a70e330c
DTITLE=Levantis - Feng Shui - Daydreams
DYEAR=2008
DGENRE=New Age
TTITLE0=01 Daydreams
TTITLE1=02 Mysteries of Hakone
TTITLE2=03 Palm-Grove
TTITLE3=04 Rarotonga
TTITLE4=05 Drifting
TTITLE5=06 Stargazer
TTITLE6=07 Friday
TTITLE7=08 New Dawn
TTITLE8=09 Rising Star
TTITLE9=10 Horizon Interlude
TTITLE10=11 Universal Voyage
TTITLE11=12 Eight Steps to Nirvana
EXTD=YEAR: 2008
EXTT0=
EXTT1=
EXTT2=
EXTT3=
EXTT4=
EXTT5=
EXTT6=
EXTT7=
EXTT8=
EXTT9=
EXTT10=
EXTT11=
PLAYORDER=
